<?xml version="1.0" encoding="UTF-8"?>
<svg id="Layer_2" xmlns="http://www.w3.org/2000/svg" xmlns:xlink="http://www.w3.org/1999/xlink" viewBox="0 0 152.78 154.71">
  <defs>
    <style>
      .cls-1 {
        fill: #fff;
      }

      .cls-2 {
        fill: url(#Degradado_sin_nombre_2112);
      }
    </style>
    <linearGradient id="Degradado_sin_nombre_2112" data-name="Degradado sin nombre 2112" x1="-14.98" y1="-9.16" x2="172" y2="168.92" gradientUnits="userSpaceOnUse">
      <stop offset="0" stop-color="#ff5959"/>
      <stop offset=".43" stop-color="#e151a6"/>
      <stop offset=".82" stop-color="#c94be6"/>
      <stop offset="1" stop-color="#c049ff"/>
    </linearGradient>
  </defs>
  <g id="Layer_1-2" data-name="Layer_1">
    <g>
      <path class="cls-2" d="M83.18.32l12.77-.05c16.55-.03,32.67-.44,45.17,12.21,15.09,15.28,11.27,37.75,11.15,57.33l-33.52.11c-1.21-6.04-3.05-11.75-6.3-17.02-6.83-11.06-16.93-16.69-29.27-19.65V.32ZM98.68,115.56c-4.87,2.87-10.06,4.35-15.49,5.75.02,11.1-.17,22.24.11,33.33,10.67-.01,21.39.22,32.05-.13,11.62-1.34,21.5-5.08,28.95-14.51,8.59-10.87,8.04-22.87,7.93-35.98-.05-5.98,0-11.98-.22-17.95-10.82-.46-21.83-.58-32.66-.32-3.31,12.56-9.21,23.05-20.67,29.81ZM6.55,16.78C-2.17,30.69.18,53.21.61,69.23c9.58-.18,21.17.79,30.47-.74,1.06-1.6,1.49-3.11,1.99-4.96,4.2-11.45,10.85-20.62,22.21-25.81,4.01-1.83,8.22-2.83,12.52-3.71.02-11.2.16-22.4.06-33.6-11.95-.17-24.28-.86-36.19.03C21.06,2.94,12.47,7.33,6.55,16.78ZM11.69,143.26c10.09,10.18,22.12,10.84,35.62,11.06,6.9.12,13.81.19,20.71.18-.02-11.19-.13-22.39-.33-33.58-11.82-2.08-21.16-7.89-28.14-17.71-3.77-5.31-6.14-11-7.64-17.31-10.51-.34-21.02-.46-31.53-.38-.05,19.15-3.49,42.8,11.31,57.73Z"/>
      <circle class="cls-1" cx="125.32" cy="31.37" r="8.73"/>
    </g>
  </g>
</svg>