<?xml version="1.0" encoding="UTF-8"?>
<svg id="Layer_2" xmlns="http://www.w3.org/2000/svg" xmlns:xlink="http://www.w3.org/1999/xlink" viewBox="0 0 698.78 154.71">
  <defs>
    <style>
      .cls-1 {
        fill: #fff;
      }

      .cls-2 {
        fill: url(#Degradado_sin_nombre_2112);
      }

      .cls-3 {
        fill: #333;
      }
    </style>
    <linearGradient id="Degradado_sin_nombre_2112" data-name="Degradado sin nombre 2112" x1="-14.98" y1="-9.16" x2="172" y2="168.92" gradientUnits="userSpaceOnUse">
      <stop offset="0" stop-color="#ff5959"/>
      <stop offset=".43" stop-color="#e151a6"/>
      <stop offset=".82" stop-color="#c94be6"/>
      <stop offset="1" stop-color="#c049ff"/>
    </linearGradient>
  </defs>
  <g id="Layer_1-2" data-name="Layer_1">
    <g>
      <path class="cls-2" d="M83.18.32l12.77-.05c16.55-.03,32.67-.44,45.17,12.21,15.09,15.28,11.27,37.75,11.15,57.33l-33.52.11c-1.21-6.04-3.05-11.75-6.3-17.02-6.83-11.06-16.93-16.69-29.27-19.65V.32ZM98.68,115.56c-4.87,2.87-10.06,4.35-15.49,5.75.02,11.1-.17,22.24.11,33.33,10.67-.01,21.39.22,32.05-.13,11.62-1.34,21.5-5.08,28.95-14.51,8.59-10.87,8.04-22.87,7.93-35.98-.05-5.98,0-11.98-.22-17.95-10.82-.46-21.83-.58-32.66-.32-3.31,12.56-9.21,23.05-20.67,29.81ZM6.55,16.78C-2.17,30.69.18,53.21.61,69.23c9.58-.18,21.17.79,30.47-.74,1.06-1.6,1.49-3.11,1.99-4.96,4.2-11.45,10.85-20.62,22.21-25.81,4.01-1.83,8.22-2.83,12.52-3.71.02-11.2.16-22.4.06-33.6-11.95-.17-24.28-.86-36.19.03C21.06,2.94,12.47,7.33,6.55,16.78ZM11.69,143.26c10.09,10.18,22.12,10.84,35.62,11.06,6.9.12,13.81.19,20.71.18-.02-11.19-.13-22.39-.33-33.58-11.82-2.08-21.16-7.89-28.14-17.71-3.77-5.31-6.14-11-7.64-17.31-10.51-.34-21.02-.46-31.53-.38-.05,19.15-3.49,42.8,11.31,57.73Z"/>
      <circle class="cls-1" cx="125.32" cy="31.37" r="8.73"/>
      <g>
        <path class="cls-3" d="M214.83,139.8c-25.72,0-40.18-9.59-40.18-37.9h14.15c0,20.7,12.02,23.89,26.33,23.89s23.44-5.78,23.44-24.65V30.98h14.61v68.49c0,30.29-13.7,40.33-38.35,40.33Z"/>
        <path class="cls-3" d="M301.57,71.62c-9.89,0-21.92,1.07-21.92,16.13h-13.24c0-20.24,13.54-28.61,35-28.61,24.81,0,36.98,8.83,36.98,31.35v47.03h-14.31v-10.5c-3.04,7.61-10.5,12.78-27.85,12.78-19.94,0-33.94-5.02-33.94-23.44,0-14.91,11.72-21.76,34.85-24.35l26.94-2.89v-.3c0-16.13-13.39-17.2-22.52-17.2ZM298.53,102.51c-11.26,1.37-21.31,4.72-21.31,13.54,0,6.7,4.41,11.26,20.55,11.26,19.18,0,25.57-8.83,26.33-15.07v-12.48l-25.57,2.74Z"/>
        <path class="cls-3" d="M386.8,71.62c-9.89,0-21.92,1.07-21.92,16.13h-13.24c0-20.24,13.54-28.61,35-28.61,24.81,0,36.98,8.83,36.98,31.35v47.03h-14.31v-10.5c-3.04,7.61-10.5,12.78-27.85,12.78-19.94,0-33.94-5.02-33.94-23.44,0-14.91,11.72-21.76,34.85-24.35l26.94-2.89v-.3c0-16.13-13.39-17.2-22.52-17.2ZM383.75,102.51c-11.26,1.37-21.31,4.72-21.31,13.54,0,6.7,4.41,11.26,20.55,11.26,19.18,0,25.57-8.83,26.33-15.07v-12.48l-25.57,2.74Z"/>
        <path class="cls-3" d="M499.26,125.64c-4.57,8.68-12.78,14.15-27.55,14.15-21.31,0-37.44-13.85-37.44-40.33s13.39-40.33,36.83-40.33c15.07,0,23.59,5.02,28.16,13.7V23.37h14.15v114.14h-14.15v-11.87ZM474,126.41c16.74,0,25.26-9.44,25.26-27.09s-8.52-26.79-25.26-26.79c-18.72,0-24.81,9.28-24.81,26.79s8.52,27.09,24.81,27.09Z"/>
        <path class="cls-3" d="M567.75,59.14c28.46,0,42.31,13.85,42.31,40.33s-13.85,40.33-42.31,40.33-42.16-13.85-42.16-40.33,13.7-40.33,42.16-40.33ZM567.75,126.41c18.42,0,27.39-9.28,27.39-26.94s-8.98-26.94-27.39-26.94-27.24,9.28-27.24,26.94,8.83,26.94,27.24,26.94Z"/>
        <path class="cls-3" d="M698.78,103.88h-64.53c1.52,17.5,11.41,23.44,27.39,23.44,13.39,0,23.13-7.15,23.13-15.83l13.09.15c0,16.74-12.63,28.16-36.22,28.16-28.46,0-42.46-14-42.46-40.48s14.15-40.18,39.72-40.18c28.46,0,39.87,14.46,39.87,41.7v3.04ZM684.47,92.77c-1.67-15.37-11.26-21.15-24.96-21.15-12.63,0-22.52,7-24.81,21.15h49.77Z"/>
      </g>
    </g>
  </g>
</svg>